<mxfile host="app.diagrams.net" agent="Mozilla/5.0 (X11; Linux x86_64) AppleWebKit/537.36 (KHTML, like Gecko) Chrome/133.0.0.0 Safari/537.36" version="26.0.16">
  <diagram name="Page-1" id="SxmTlsYfOwt-9U6Cl27a">
    <mxGraphModel dx="1269" dy="692" grid="1" gridSize="10" guides="1" tooltips="1" connect="1" arrows="1" fold="1" page="1" pageScale="1" pageWidth="827" pageHeight="1169" math="0" shadow="0">
      <root>
        <mxCell id="0" />
        <mxCell id="1" parent="0" />
        <mxCell id="ITCWj5O4sKKyTJM5XGhB-1" value="" style="shape=parallelogram;perimeter=parallelogramPerimeter;whiteSpace=wrap;html=1;fixedSize=1;size=80;" vertex="1" parent="1">
          <mxGeometry x="280" y="80" width="200" height="80" as="geometry" />
        </mxCell>
        <mxCell id="ITCWj5O4sKKyTJM5XGhB-2" value="" style="shape=parallelogram;perimeter=parallelogramPerimeter;whiteSpace=wrap;html=1;fixedSize=1;size=80;direction=west;flipH=1;" vertex="1" parent="1">
          <mxGeometry x="40" y="80" width="200" height="80" as="geometry" />
        </mxCell>
        <mxCell id="ITCWj5O4sKKyTJM5XGhB-3" value="" style="rounded=0;whiteSpace=wrap;html=1;" vertex="1" parent="1">
          <mxGeometry x="120" y="200" width="280" height="80" as="geometry" />
        </mxCell>
        <mxCell id="ITCWj5O4sKKyTJM5XGhB-4" value="" style="rounded=0;whiteSpace=wrap;html=1;" vertex="1" parent="1">
          <mxGeometry x="120" y="320" width="280" height="80" as="geometry" />
        </mxCell>
      </root>
    </mxGraphModel>
  </diagram>
</mxfile>
